<svg xmlns="http://www.w3.org/2000/svg" width="30" height="30"><path d="M15.184 3c-3.363 0-7.1 1.258-7.885 5.371-.084.438.223.663.512.727l3.414.347c.32-.017.576-.315.638-.63.294-1.418 1.494-2.118 2.84-2.118.727 0 1.55.272 1.98.916.498.72.415 1.697.415 2.53v.472c-2.05.228-4.721.367-6.637 1.201-2.214.947-3.768 2.88-3.768 5.72 0 3.633 2.324 5.466 5.3 5.466 2.512 0 3.868-.603 5.808-2.559.64.92.869 1.371 2.043 2.338.264.14.597.114.83-.093v.03c.705-.621 1.99-1.736 2.71-2.337.288-.234.226-.6 0-.918-.645-.883-1.308-1.616-1.308-3.256v-5.436c0-2.309.157-4.445-1.562-6.035C19.157 3.448 16.902 3 15.184 3zm.957 10.426c.319-.021.637 0 .957 0v.758c0 1.364.055 2.485-.639 3.697-.562.984-1.465 1.58-2.457 1.58-1.356 0-2.14-1.015-2.14-2.53 0-2.604 2.049-3.36 4.279-3.505zm9.94 8.795c-.91.013-1.975.203-2.79.77-.25.173-.214.419.064.386.917-.109 2.944-.365 3.31.096.363.462-.403 2.36-.745 3.209-.104.256.121.355.355.16 1.526-1.264 1.933-3.886 1.621-4.27-.155-.187-.906-.364-1.816-.351zm-23.903.48c-.19.025-.265.272-.065.451C5.505 26.184 9.977 28 14.955 28c3.551 0 7.696-1.1 10.541-3.18.47-.345.061-.877-.42-.674-3.189 1.34-6.675 1.99-9.828 1.99-4.675 0-9.183-1.262-12.842-3.37a.406.406 0 00-.228-.065z"/></svg>672 4.7363281 C 19.156672 3.4483281 16.901594 3 15.183594 3 z M 16.140625 13.425781 C 16.459625 13.404781 16.777656 13.425781 17.097656 13.425781 L 17.097656 14.183594 C 17.098656 15.547594 17.152984 16.668859 16.458984 17.880859 C 15.896984 18.864859 14.993953 19.460938 14.001953 19.460938 C 12.645953 19.460938 11.861328 18.445641 11.861328 16.931641 C 11.861328 14.326641 13.910625 13.570781 16.140625 13.425781 z M 26.080078 22.220703 C 25.171078 22.233703 24.106016 22.424234 23.291016 22.990234 C 23.041016 23.164234 23.077469 23.409953 23.355469 23.376953 C 24.272469 23.267953 26.299063 23.011656 26.664062 23.472656 C 27.028063 23.934656 26.261922 25.832641 25.919922 26.681641 C 25.815922 26.937641 26.041391 27.036797 26.275391 26.841797 C 27.801391 25.577797 28.208484 22.956266 27.896484 22.572266 C 27.741484 22.385266 26.990078 22.207703 26.080078 22.220703 z M 2.1777344 22.701172 C 1.9877344 22.726172 1.9132812 22.973344 2.1132812 23.152344 C 5.5052812 26.184344 9.9770781 28 14.955078 28 C 18.506078 28 22.651094 26.899312 25.496094 24.820312 C 25.966094 24.475313 25.557172 23.943484 25.076172 24.146484 C 21.887172 25.486484 18.401047 26.136719 15.248047 26.136719 C 10.573047 26.136719 6.06525 24.873625 2.40625 22.765625 C 2.32525 22.719625 2.2397344 22.693172 2.1777344 22.701172 z"/></svg>